<svg xmlns="http://www.w3.org/2000/svg" viewBox="-95 -125 195 180" width="195" height="180">
  <title>Spider plant, thirsty — Goomba Glider</title>
  <g id="spider-plant-thirsty">
    <ellipse id="glow" cx="0" cy="-35" rx="88" ry="75"
             fill="#ffd166" opacity="0.12"/>
    <g id="pot">
      <ellipse id="saucer" cx="0" cy="8" rx="42" ry="8" fill="#cfc4ec"/>
      <path id="body" d="M -31,-24 L 31,-24 L 23,8 L -23,8 Z" fill="#ff9dce"/>
    <rect id="rim" x="-35" y="-32" width="70" height="13" rx="6" fill="#ffd166"/>
    </g>
    <g id="runner">
      <path id="stolon" d="M 4,-34 Q 34,-60 60,2"
            fill="none" stroke="#5f8f7f" stroke-width="2.2" stroke-linecap="round"/>
      <g id="plantlet">
        <path id="baby-leaf-1" d="M 60,2 Q 48.95,3.4 43,6 Q 54.9,4.8 60,2 Z" fill="#49a08f"/>
        <path id="baby-leaf-2" d="M 60,2 Q 52.85,6.2 49,14 Q 56.7,10.4 60,2 Z" fill="#49a08f"/>
        <path id="baby-leaf-3" d="M 60,2 Q 60,7.25 60,17 Q 60,12.5 60,2 Z" fill="#49a08f"/>
        <path id="baby-leaf-4" d="M 60,2 Q 67.15,5.85 71,13 Q 63.3,9.7 60,2 Z" fill="#49a08f"/>
        <path id="baby-leaf-5" d="M 60,2 Q 71.05,3.05 77,5 Q 65.1,4.1 60,2 Z" fill="#49a08f"/>
      </g>
    </g>
    <g id="blades">
      <g id="blade-1">
        <path d="M 0,-34 Q -16.59,-44.26 -45.76,18 Q -27.09,-53.5 0,-34 Z"
              fill="#49a08f" stroke="#ffd166" stroke-opacity="0.7" stroke-width="1.8" stroke-linejoin="round"/>
        <path d="M 0,-34 Q -21.84,-48.88 -45.76,18"
              fill="none" stroke="#d6ece4" stroke-opacity="0.35" stroke-width="1.54" stroke-linecap="round"/>
      </g>
      <g id="blade-2">
        <path d="M 0,-34 Q 27.98,-52.22 47.52,21 Q 17.38,-43.06 0,-34 Z"
              fill="#49a08f" stroke="#ffd166" stroke-opacity="0.7" stroke-width="1.8" stroke-linejoin="round"/>
        <path d="M 0,-34 Q 22.68,-47.64 47.52,21"
              fill="none" stroke="#d6ece4" stroke-opacity="0.35" stroke-width="1.54" stroke-linecap="round"/>
      </g>
      <g id="blade-3">
        <path d="M 0,-34 Q -13.42,-54.1 -38.72,-1 Q -23.54,-65.98 0,-34 Z"
              fill="#49a08f" stroke="#ffd166" stroke-opacity="0.7" stroke-width="1.8" stroke-linejoin="round"/>
        <path d="M 0,-34 Q -18.48,-60.04 -38.72,-1"
              fill="none" stroke="#d6ece4" stroke-opacity="0.35" stroke-width="1.72" stroke-linecap="round"/>
      </g>
      <g id="blade-4">
        <path d="M 0,-34 Q 24.5,-64.63 40.48,2 Q 14.14,-52.97 0,-34 Z"
              fill="#49a08f" stroke="#ffd166" stroke-opacity="0.7" stroke-width="1.8" stroke-linejoin="round"/>
        <path d="M 0,-34 Q 19.32,-58.8 40.48,2"
              fill="none" stroke="#d6ece4" stroke-opacity="0.35" stroke-width="1.72" stroke-linecap="round"/>
      </g>
      <g id="blade-5">
        <path d="M 0,-34 Q -10.11,-63.38 -28.16,-22 Q -16.77,-79.02 0,-34 Z"
              fill="#49a08f" stroke="#ffd166" stroke-opacity="0.7" stroke-width="1.8" stroke-linejoin="round"/>
        <path d="M 0,-34 Q -13.44,-71.2 -28.16,-22"
              fill="none" stroke="#d6ece4" stroke-opacity="0.35" stroke-width="1.87" stroke-linecap="round"/>
      </g>
      <g id="blade-6">
        <path d="M 0,-34 Q 17.88,-77.04 29.92,-20 Q 10.68,-61.64 0,-34 Z"
              fill="#49a08f" stroke="#ffd166" stroke-opacity="0.7" stroke-width="1.8" stroke-linejoin="round"/>
        <path d="M 0,-34 Q 14.28,-69.34 29.92,-20"
              fill="none" stroke="#d6ece4" stroke-opacity="0.35" stroke-width="1.87" stroke-linecap="round"/>
      </g>
      <g id="blade-7">
        <path d="M 0,-34 Q -12.23,-75.57 -14.08,-52 Q -1.21,-84.19 0,-34 Z"
              fill="#49a08f" stroke="#ffd166" stroke-opacity="0.7" stroke-width="1.8" stroke-linejoin="round"/>
        <path d="M 0,-34 Q -6.72,-79.88 -14.08,-52"
              fill="none" stroke="#d6ece4" stroke-opacity="0.35" stroke-width="1.54" stroke-linecap="round"/>
      </g>
      <g id="blade-8">
        <path d="M 0,-34 Q 3.49,-82.77 16.72,-48 Q 12.47,-72.03 0,-34 Z"
              fill="#49a08f" stroke="#ffd166" stroke-opacity="0.7" stroke-width="1.8" stroke-linejoin="round"/>
        <path d="M 0,-34 Q 7.98,-77.4 16.72,-48"
              fill="none" stroke="#d6ece4" stroke-opacity="0.35" stroke-width="1.54" stroke-linecap="round"/>
      </g>
      <g id="blade-9">
        <path d="M 0,-34 Q -3.86,-70.65 4.4,-72 Q 8.06,-69.27 0,-34 Z"
              fill="#49a08f" stroke="#ffd166" stroke-opacity="0.7" stroke-width="1.8" stroke-linejoin="round"/>
        <path d="M 0,-34 Q 2.1,-69.96 4.4,-72"
              fill="none" stroke="#d6ece4" stroke-opacity="0.35" stroke-width="1.32" stroke-linecap="round"/>
      </g>
    </g>
  </g>
</svg>
