<svg xmlns="http://www.w3.org/2000/svg" viewBox="0 0 392 392" width="392" height="392"><rect width="392" height="392" fill="#fff"/><path d="M32 32h8v8h-8zM40 32h8v8h-8zM48 32h8v8h-8zM56 32h8v8h-8zM64 32h8v8h-8zM72 32h8v8h-8zM80 32h8v8h-8zM208 32h8v8h-8zM216 32h8v8h-8zM248 32h8v8h-8zM256 32h8v8h-8zM272 32h8v8h-8zM280 32h8v8h-8zM288 32h8v8h-8zM304 32h8v8h-8zM312 32h8v8h-8zM320 32h8v8h-8zM328 32h8v8h-8zM336 32h8v8h-8zM344 32h8v8h-8zM352 32h8v8h-8zM32 40h8v8h-8zM80 40h8v8h-8zM160 40h8v8h-8zM176 40h8v8h-8zM192 40h8v8h-8zM200 40h8v8h-8zM216 40h8v8h-8zM224 40h8v8h-8zM248 40h8v8h-8zM272 40h8v8h-8zM280 40h8v8h-8zM288 40h8v8h-8zM304 40h8v8h-8zM352 40h8v8h-8zM32 48h8v8h-8zM48 48h8v8h-8zM56 48h8v8h-8zM64 48h8v8h-8zM80 48h8v8h-8zM96 48h8v8h-8zM112 48h8v8h-8zM136 48h8v8h-8zM144 48h8v8h-8zM152 48h8v8h-8zM176 48h8v8h-8zM184 48h8v8h-8zM200 48h8v8h-8zM208 48h8v8h-8zM224 48h8v8h-8zM248 48h8v8h-8zM256 48h8v8h-8zM264 48h8v8h-8zM272 48h8v8h-8zM304 48h8v8h-8zM320 48h8v8h-8zM328 48h8v8h-8zM336 48h8v8h-8zM352 48h8v8h-8zM32 56h8v8h-8zM48 56h8v8h-8zM56 56h8v8h-8zM64 56h8v8h-8zM80 56h8v8h-8zM104 56h8v8h-8zM176 56h8v8h-8zM208 56h8v8h-8zM216 56h8v8h-8zM224 56h8v8h-8zM248 56h8v8h-8zM304 56h8v8h-8zM320 56h8v8h-8zM328 56h8v8h-8zM336 56h8v8h-8zM352 56h8v8h-8zM32 64h8v8h-8zM48 64h8v8h-8zM56 64h8v8h-8zM64 64h8v8h-8zM80 64h8v8h-8zM112 64h8v8h-8zM128 64h8v8h-8zM144 64h8v8h-8zM176 64h8v8h-8zM200 64h8v8h-8zM264 64h8v8h-8zM304 64h8v8h-8zM320 64h8v8h-8zM328 64h8v8h-8zM336 64h8v8h-8zM352 64h8v8h-8zM32 72h8v8h-8zM80 72h8v8h-8zM144 72h8v8h-8zM200 72h8v8h-8zM208 72h8v8h-8zM232 72h8v8h-8zM272 72h8v8h-8zM304 72h8v8h-8zM352 72h8v8h-8zM32 80h8v8h-8zM40 80h8v8h-8zM48 80h8v8h-8zM56 80h8v8h-8zM64 80h8v8h-8zM72 80h8v8h-8zM80 80h8v8h-8zM96 80h8v8h-8zM112 80h8v8h-8zM128 80h8v8h-8zM144 80h8v8h-8zM160 80h8v8h-8zM176 80h8v8h-8zM192 80h8v8h-8zM208 80h8v8h-8zM224 80h8v8h-8zM240 80h8v8h-8zM256 80h8v8h-8zM272 80h8v8h-8zM288 80h8v8h-8zM304 80h8v8h-8zM312 80h8v8h-8zM320 80h8v8h-8zM328 80h8v8h-8zM336 80h8v8h-8zM344 80h8v8h-8zM352 80h8v8h-8zM96 88h8v8h-8zM120 88h8v8h-8zM128 88h8v8h-8zM136 88h8v8h-8zM144 88h8v8h-8zM200 88h8v8h-8zM208 88h8v8h-8zM232 88h8v8h-8zM264 88h8v8h-8zM272 88h8v8h-8zM32 96h8v8h-8zM40 96h8v8h-8zM48 96h8v8h-8zM64 96h8v8h-8zM72 96h8v8h-8zM80 96h8v8h-8zM88 96h8v8h-8zM96 96h8v8h-8zM120 96h8v8h-8zM136 96h8v8h-8zM160 96h8v8h-8zM200 96h8v8h-8zM224 96h8v8h-8zM232 96h8v8h-8zM240 96h8v8h-8zM264 96h8v8h-8zM288 96h8v8h-8zM296 96h8v8h-8zM304 96h8v8h-8zM336 96h8v8h-8zM32 104h8v8h-8zM64 104h8v8h-8zM144 104h8v8h-8zM152 104h8v8h-8zM160 104h8v8h-8zM176 104h8v8h-8zM224 104h8v8h-8zM240 104h8v8h-8zM288 104h8v8h-8zM304 104h8v8h-8zM32 112h8v8h-8zM80 112h8v8h-8zM152 112h8v8h-8zM160 112h8v8h-8zM184 112h8v8h-8zM192 112h8v8h-8zM256 112h8v8h-8zM312 112h8v8h-8zM320 112h8v8h-8zM336 112h8v8h-8zM40 120h8v8h-8zM64 120h8v8h-8zM72 120h8v8h-8zM224 120h8v8h-8zM256 120h8v8h-8zM288 120h8v8h-8zM312 120h8v8h-8zM320 120h8v8h-8zM32 128h8v8h-8zM80 128h8v8h-8zM280 128h8v8h-8zM328 128h8v8h-8zM72 136h8v8h-8zM200 136h8v8h-8zM232 136h8v8h-8zM80 144h8v8h-8zM144 144h8v8h-8zM168 144h8v8h-8zM240 144h8v8h-8zM296 144h8v8h-8zM304 144h8v8h-8zM344 144h8v8h-8zM352 144h8v8h-8zM176 152h8v8h-8zM200 152h8v8h-8zM208 152h8v8h-8zM232 152h8v8h-8zM264 152h8v8h-8zM272 152h8v8h-8zM296 152h8v8h-8zM344 152h8v8h-8zM80 160h8v8h-8zM128 160h8v8h-8zM176 160h8v8h-8zM192 160h8v8h-8zM200 160h8v8h-8zM224 160h8v8h-8zM232 160h8v8h-8zM240 160h8v8h-8zM256 160h8v8h-8zM264 160h8v8h-8zM288 160h8v8h-8zM296 160h8v8h-8zM304 160h8v8h-8zM320 160h8v8h-8zM344 160h8v8h-8zM352 160h8v8h-8zM152 168h8v8h-8zM160 168h8v8h-8zM208 168h8v8h-8zM224 168h8v8h-8zM240 168h8v8h-8zM256 168h8v8h-8zM280 168h8v8h-8zM288 168h8v8h-8zM296 168h8v8h-8zM304 168h8v8h-8zM328 168h8v8h-8zM72 176h8v8h-8zM80 176h8v8h-8zM120 176h8v8h-8zM152 176h8v8h-8zM160 176h8v8h-8zM192 176h8v8h-8zM256 176h8v8h-8zM312 176h8v8h-8zM336 176h8v8h-8zM72 184h8v8h-8zM128 184h8v8h-8zM152 184h8v8h-8zM184 184h8v8h-8zM216 184h8v8h-8zM224 184h8v8h-8zM248 184h8v8h-8zM256 184h8v8h-8zM56 192h8v8h-8zM72 192h8v8h-8zM80 192h8v8h-8zM184 192h8v8h-8zM216 192h8v8h-8zM248 192h8v8h-8zM328 192h8v8h-8zM336 192h8v8h-8zM48 200h8v8h-8zM200 200h8v8h-8zM232 200h8v8h-8zM352 200h8v8h-8zM80 208h8v8h-8zM136 208h8v8h-8zM200 208h8v8h-8zM208 208h8v8h-8zM240 208h8v8h-8zM272 208h8v8h-8zM280 208h8v8h-8zM288 208h8v8h-8zM296 208h8v8h-8zM304 208h8v8h-8zM312 208h8v8h-8zM320 208h8v8h-8zM344 208h8v8h-8zM352 208h8v8h-8zM56 216h8v8h-8zM136 216h8v8h-8zM144 216h8v8h-8zM168 216h8v8h-8zM200 216h8v8h-8zM208 216h8v8h-8zM232 216h8v8h-8zM264 216h8v8h-8zM272 216h8v8h-8zM280 216h8v8h-8zM296 216h8v8h-8zM344 216h8v8h-8zM80 224h8v8h-8zM128 224h8v8h-8zM176 224h8v8h-8zM192 224h8v8h-8zM208 224h8v8h-8zM224 224h8v8h-8zM232 224h8v8h-8zM240 224h8v8h-8zM256 224h8v8h-8zM264 224h8v8h-8zM288 224h8v8h-8zM296 224h8v8h-8zM304 224h8v8h-8zM144 232h8v8h-8zM152 232h8v8h-8zM176 232h8v8h-8zM256 232h8v8h-8zM288 232h8v8h-8zM296 232h8v8h-8zM304 232h8v8h-8zM312 232h8v8h-8zM320 232h8v8h-8zM328 232h8v8h-8zM40 240h8v8h-8zM80 240h8v8h-8zM128 240h8v8h-8zM160 240h8v8h-8zM224 240h8v8h-8zM232 240h8v8h-8zM272 240h8v8h-8zM288 240h8v8h-8zM312 240h8v8h-8zM328 240h8v8h-8zM120 248h8v8h-8zM192 248h8v8h-8zM216 248h8v8h-8zM224 248h8v8h-8zM256 248h8v8h-8zM264 248h8v8h-8zM288 248h8v8h-8zM320 248h8v8h-8zM328 248h8v8h-8zM344 248h8v8h-8zM352 248h8v8h-8zM80 256h8v8h-8zM224 256h8v8h-8zM248 256h8v8h-8zM280 256h8v8h-8zM288 256h8v8h-8zM296 256h8v8h-8zM304 256h8v8h-8zM312 256h8v8h-8zM320 256h8v8h-8zM328 256h8v8h-8zM168 264h8v8h-8zM216 264h8v8h-8zM240 264h8v8h-8zM248 264h8v8h-8zM272 264h8v8h-8zM280 264h8v8h-8zM328 264h8v8h-8zM344 264h8v8h-8zM352 264h8v8h-8zM48 272h8v8h-8zM80 272h8v8h-8zM136 272h8v8h-8zM200 272h8v8h-8zM208 272h8v8h-8zM216 272h8v8h-8zM232 272h8v8h-8zM264 272h8v8h-8zM296 272h8v8h-8zM304 272h8v8h-8zM336 272h8v8h-8zM344 272h8v8h-8zM352 272h8v8h-8zM48 280h8v8h-8zM168 280h8v8h-8zM200 280h8v8h-8zM208 280h8v8h-8zM232 280h8v8h-8zM240 280h8v8h-8zM264 280h8v8h-8zM296 280h8v8h-8zM304 280h8v8h-8zM312 280h8v8h-8zM344 280h8v8h-8zM80 288h8v8h-8zM192 288h8v8h-8zM200 288h8v8h-8zM208 288h8v8h-8zM232 288h8v8h-8zM256 288h8v8h-8zM264 288h8v8h-8zM280 288h8v8h-8zM288 288h8v8h-8zM296 288h8v8h-8zM304 288h8v8h-8zM312 288h8v8h-8zM320 288h8v8h-8zM352 288h8v8h-8zM96 296h8v8h-8zM120 296h8v8h-8zM128 296h8v8h-8zM176 296h8v8h-8zM184 296h8v8h-8zM192 296h8v8h-8zM208 296h8v8h-8zM224 296h8v8h-8zM232 296h8v8h-8zM256 296h8v8h-8zM280 296h8v8h-8zM288 296h8v8h-8zM320 296h8v8h-8zM328 296h8v8h-8zM336 296h8v8h-8zM352 296h8v8h-8zM32 304h8v8h-8zM40 304h8v8h-8zM48 304h8v8h-8zM56 304h8v8h-8zM64 304h8v8h-8zM72 304h8v8h-8zM80 304h8v8h-8zM96 304h8v8h-8zM184 304h8v8h-8zM208 304h8v8h-8zM232 304h8v8h-8zM280 304h8v8h-8zM288 304h8v8h-8zM304 304h8v8h-8zM320 304h8v8h-8zM328 304h8v8h-8zM352 304h8v8h-8zM32 312h8v8h-8zM80 312h8v8h-8zM96 312h8v8h-8zM128 312h8v8h-8zM184 312h8v8h-8zM208 312h8v8h-8zM216 312h8v8h-8zM232 312h8v8h-8zM256 312h8v8h-8zM280 312h8v8h-8zM288 312h8v8h-8zM320 312h8v8h-8zM328 312h8v8h-8zM352 312h8v8h-8zM32 320h8v8h-8zM48 320h8v8h-8zM56 320h8v8h-8zM64 320h8v8h-8zM80 320h8v8h-8zM96 320h8v8h-8zM120 320h8v8h-8zM184 320h8v8h-8zM208 320h8v8h-8zM232 320h8v8h-8zM256 320h8v8h-8zM288 320h8v8h-8zM296 320h8v8h-8zM304 320h8v8h-8zM312 320h8v8h-8zM320 320h8v8h-8zM352 320h8v8h-8zM32 328h8v8h-8zM48 328h8v8h-8zM56 328h8v8h-8zM64 328h8v8h-8zM80 328h8v8h-8zM208 328h8v8h-8zM232 328h8v8h-8zM240 328h8v8h-8zM264 328h8v8h-8zM280 328h8v8h-8zM288 328h8v8h-8zM296 328h8v8h-8zM304 328h8v8h-8zM312 328h8v8h-8zM320 328h8v8h-8zM344 328h8v8h-8zM352 328h8v8h-8zM32 336h8v8h-8zM48 336h8v8h-8zM56 336h8v8h-8zM64 336h8v8h-8zM80 336h8v8h-8zM96 336h8v8h-8zM144 336h8v8h-8zM168 336h8v8h-8zM200 336h8v8h-8zM208 336h8v8h-8zM216 336h8v8h-8zM232 336h8v8h-8zM240 336h8v8h-8zM264 336h8v8h-8zM272 336h8v8h-8zM288 336h8v8h-8zM320 336h8v8h-8zM336 336h8v8h-8zM344 336h8v8h-8zM352 336h8v8h-8zM32 344h8v8h-8zM80 344h8v8h-8zM96 344h8v8h-8zM176 344h8v8h-8zM200 344h8v8h-8zM216 344h8v8h-8zM232 344h8v8h-8zM240 344h8v8h-8zM248 344h8v8h-8zM264 344h8v8h-8zM272 344h8v8h-8zM280 344h8v8h-8zM288 344h8v8h-8zM320 344h8v8h-8zM328 344h8v8h-8zM344 344h8v8h-8zM32 352h8v8h-8zM40 352h8v8h-8zM48 352h8v8h-8zM56 352h8v8h-8zM64 352h8v8h-8zM72 352h8v8h-8zM80 352h8v8h-8zM96 352h8v8h-8zM144 352h8v8h-8zM160 352h8v8h-8zM192 352h8v8h-8zM200 352h8v8h-8zM208 352h8v8h-8zM224 352h8v8h-8zM232 352h8v8h-8zM248 352h8v8h-8zM256 352h8v8h-8zM264 352h8v8h-8zM288 352h8v8h-8zM296 352h8v8h-8zM304 352h8v8h-8zM312 352h8v8h-8zM344 352h8v8h-8zM352 352h8v8h-8z" fill="#000"/></svg>