<svg xmlns="http://www.w3.org/2000/svg" viewBox="0 0 980 980" width="980" height="980"><rect width="980" height="980" fill="#fff"/><path d="M80 80h20v20h-20zM100 80h20v20h-20zM120 80h20v20h-20zM140 80h20v20h-20zM160 80h20v20h-20zM180 80h20v20h-20zM200 80h20v20h-20zM260 80h20v20h-20zM300 80h20v20h-20zM320 80h20v20h-20zM360 80h20v20h-20zM380 80h20v20h-20zM400 80h20v20h-20zM420 80h20v20h-20zM440 80h20v20h-20zM480 80h20v20h-20zM500 80h20v20h-20zM520 80h20v20h-20zM540 80h20v20h-20zM580 80h20v20h-20zM600 80h20v20h-20zM640 80h20v20h-20zM660 80h20v20h-20zM680 80h20v20h-20zM760 80h20v20h-20zM780 80h20v20h-20zM800 80h20v20h-20zM820 80h20v20h-20zM840 80h20v20h-20zM860 80h20v20h-20zM880 80h20v20h-20zM80 100h20v20h-20zM200 100h20v20h-20zM260 100h20v20h-20zM300 100h20v20h-20zM320 100h20v20h-20zM380 100h20v20h-20zM420 100h20v20h-20zM460 100h20v20h-20zM480 100h20v20h-20zM620 100h20v20h-20zM640 100h20v20h-20zM660 100h20v20h-20zM680 100h20v20h-20zM700 100h20v20h-20zM760 100h20v20h-20zM880 100h20v20h-20zM80 120h20v20h-20zM120 120h20v20h-20zM140 120h20v20h-20zM160 120h20v20h-20zM200 120h20v20h-20zM240 120h20v20h-20zM300 120h20v20h-20zM340 120h20v20h-20zM360 120h20v20h-20zM380 120h20v20h-20zM400 120h20v20h-20zM440 120h20v20h-20zM460 120h20v20h-20zM500 120h20v20h-20zM520 120h20v20h-20zM540 120h20v20h-20zM560 120h20v20h-20zM580 120h20v20h-20zM600 120h20v20h-20zM620 120h20v20h-20zM640 120h20v20h-20zM660 120h20v20h-20zM680 120h20v20h-20zM700 120h20v20h-20zM720 120h20v20h-20zM760 120h20v20h-20zM800 120h20v20h-20zM820 120h20v20h-20zM840 120h20v20h-20zM880 120h20v20h-20zM80 140h20v20h-20zM120 140h20v20h-20zM140 140h20v20h-20zM160 140h20v20h-20zM200 140h20v20h-20zM400 140h20v20h-20zM440 140h20v20h-20zM460 140h20v20h-20zM500 140h20v20h-20zM520 140h20v20h-20zM560 140h20v20h-20zM580 140h20v20h-20zM640 140h20v20h-20zM660 140h20v20h-20zM680 140h20v20h-20zM720 140h20v20h-20zM760 140h20v20h-20zM800 140h20v20h-20zM820 140h20v20h-20zM840 140h20v20h-20zM880 140h20v20h-20zM80 160h20v20h-20zM120 160h20v20h-20zM140 160h20v20h-20zM160 160h20v20h-20zM200 160h20v20h-20zM260 160h20v20h-20zM340 160h20v20h-20zM360 160h20v20h-20zM380 160h20v20h-20zM400 160h20v20h-20zM500 160h20v20h-20zM540 160h20v20h-20zM560 160h20v20h-20zM600 160h20v20h-20zM620 160h20v20h-20zM700 160h20v20h-20zM720 160h20v20h-20zM760 160h20v20h-20zM800 160h20v20h-20zM820 160h20v20h-20zM840 160h20v20h-20zM880 160h20v20h-20zM80 180h20v20h-20zM200 180h20v20h-20zM260 180h20v20h-20zM280 180h20v20h-20zM320 180h20v20h-20zM340 180h20v20h-20zM380 180h20v20h-20zM480 180h20v20h-20zM580 180h20v20h-20zM620 180h20v20h-20zM640 180h20v20h-20zM660 180h20v20h-20zM680 180h20v20h-20zM700 180h20v20h-20zM760 180h20v20h-20zM880 180h20v20h-20zM80 200h20v20h-20zM100 200h20v20h-20zM120 200h20v20h-20zM140 200h20v20h-20zM160 200h20v20h-20zM180 200h20v20h-20zM200 200h20v20h-20zM240 200h20v20h-20zM280 200h20v20h-20zM320 200h20v20h-20zM360 200h20v20h-20zM400 200h20v20h-20zM440 200h20v20h-20zM480 200h20v20h-20zM520 200h20v20h-20zM560 200h20v20h-20zM600 200h20v20h-20zM640 200h20v20h-20zM680 200h20v20h-20zM720 200h20v20h-20zM760 200h20v20h-20zM780 200h20v20h-20zM800 200h20v20h-20zM820 200h20v20h-20zM840 200h20v20h-20zM860 200h20v20h-20zM880 200h20v20h-20zM240 220h20v20h-20zM260 220h20v20h-20zM300 220h20v20h-20zM400 220h20v20h-20zM420 220h20v20h-20zM440 220h20v20h-20zM460 220h20v20h-20zM480 220h20v20h-20zM500 220h20v20h-20zM520 220h20v20h-20zM540 220h20v20h-20zM560 220h20v20h-20zM660 220h20v20h-20zM700 220h20v20h-20zM720 220h20v20h-20zM80 240h20v20h-20zM100 240h20v20h-20zM120 240h20v20h-20zM160 240h20v20h-20zM180 240h20v20h-20zM200 240h20v20h-20zM220 240h20v20h-20zM240 240h20v20h-20zM260 240h20v20h-20zM380 240h20v20h-20zM400 240h20v20h-20zM420 240h20v20h-20zM440 240h20v20h-20zM480 240h20v20h-20zM520 240h20v20h-20zM540 240h20v20h-20zM560 240h20v20h-20zM580 240h20v20h-20zM640 240h20v20h-20zM700 240h20v20h-20zM720 240h20v20h-20zM740 240h20v20h-20zM760 240h20v20h-20zM840 240h20v20h-20zM120 260h20v20h-20zM220 260h20v20h-20zM340 260h20v20h-20zM360 260h20v20h-20zM380 260h20v20h-20zM400 260h20v20h-20zM480 260h20v20h-20zM560 260h20v20h-20zM580 260h20v20h-20zM600 260h20v20h-20zM640 260h20v20h-20zM700 260h20v20h-20zM720 260h20v20h-20zM760 260h20v20h-20zM860 260h20v20h-20zM80 280h20v20h-20zM120 280h20v20h-20zM140 280h20v20h-20zM160 280h20v20h-20zM180 280h20v20h-20zM200 280h20v20h-20zM300 280h20v20h-20zM320 280h20v20h-20zM340 280h20v20h-20zM360 280h20v20h-20zM480 280h20v20h-20zM600 280h20v20h-20zM640 280h20v20h-20zM660 280h20v20h-20zM760 280h20v20h-20zM780 280h20v20h-20zM840 280h20v20h-20zM860 280h20v20h-20zM120 300h20v20h-20zM140 300h20v20h-20zM160 300h20v20h-20zM260 300h20v20h-20zM280 300h20v20h-20zM300 300h20v20h-20zM320 300h20v20h-20zM340 300h20v20h-20zM460 300h20v20h-20zM480 300h20v20h-20zM500 300h20v20h-20zM620 300h20v20h-20zM640 300h20v20h-20zM660 300h20v20h-20zM680 300h20v20h-20zM720 300h20v20h-20zM800 300h20v20h-20zM860 300h20v20h-20zM80 320h20v20h-20zM120 320h20v20h-20zM140 320h20v20h-20zM200 320h20v20h-20zM220 320h20v20h-20zM240 320h20v20h-20zM260 320h20v20h-20zM280 320h20v20h-20zM300 320h20v20h-20zM420 320h20v20h-20zM440 320h20v20h-20zM480 320h20v20h-20zM520 320h20v20h-20zM540 320h20v20h-20zM620 320h20v20h-20zM660 320h20v20h-20zM680 320h20v20h-20zM700 320h20v20h-20zM720 320h20v20h-20zM740 320h20v20h-20zM820 320h20v20h-20zM860 320h20v20h-20zM120 340h20v20h-20zM140 340h20v20h-20zM220 340h20v20h-20zM240 340h20v20h-20zM260 340h20v20h-20zM380 340h20v20h-20zM400 340h20v20h-20zM480 340h20v20h-20zM560 340h20v20h-20zM580 340h20v20h-20zM700 340h20v20h-20zM720 340h20v20h-20zM740 340h20v20h-20zM760 340h20v20h-20zM820 340h20v20h-20zM840 340h20v20h-20zM880 340h20v20h-20zM80 360h20v20h-20zM120 360h20v20h-20zM140 360h20v20h-20zM160 360h20v20h-20zM200 360h20v20h-20zM220 360h20v20h-20zM240 360h20v20h-20zM340 360h20v20h-20zM360 360h20v20h-20zM480 360h20v20h-20zM600 360h20v20h-20zM620 360h20v20h-20zM720 360h20v20h-20zM740 360h20v20h-20zM760 360h20v20h-20zM820 360h20v20h-20zM840 360h20v20h-20zM860 360h20v20h-20zM880 360h20v20h-20zM80 380h20v20h-20zM100 380h20v20h-20zM120 380h20v20h-20zM140 380h20v20h-20zM220 380h20v20h-20zM240 380h20v20h-20zM260 380h20v20h-20zM280 380h20v20h-20zM320 380h20v20h-20zM480 380h20v20h-20zM640 380h20v20h-20zM680 380h20v20h-20zM700 380h20v20h-20zM720 380h20v20h-20zM740 380h20v20h-20zM820 380h20v20h-20zM840 380h20v20h-20zM860 380h20v20h-20zM80 400h20v20h-20zM100 400h20v20h-20zM140 400h20v20h-20zM160 400h20v20h-20zM200 400h20v20h-20zM220 400h20v20h-20zM280 400h20v20h-20zM300 400h20v20h-20zM320 400h20v20h-20zM480 400h20v20h-20zM640 400h20v20h-20zM660 400h20v20h-20zM680 400h20v20h-20zM740 400h20v20h-20zM760 400h20v20h-20zM820 400h20v20h-20zM860 400h20v20h-20zM880 400h20v20h-20zM220 420h20v20h-20zM320 420h20v20h-20zM340 420h20v20h-20zM480 420h20v20h-20zM620 420h20v20h-20zM640 420h20v20h-20zM740 420h20v20h-20zM760 420h20v20h-20zM820 420h20v20h-20zM860 420h20v20h-20zM200 440h20v20h-20zM220 440h20v20h-20zM360 440h20v20h-20zM380 440h20v20h-20zM480 440h20v20h-20zM580 440h20v20h-20zM600 440h20v20h-20zM740 440h20v20h-20zM760 440h20v20h-20zM780 440h20v20h-20zM800 440h20v20h-20zM840 440h20v20h-20zM220 460h20v20h-20zM400 460h20v20h-20zM420 460h20v20h-20zM440 460h20v20h-20zM460 460h20v20h-20zM480 460h20v20h-20zM500 460h20v20h-20zM520 460h20v20h-20zM540 460h20v20h-20zM560 460h20v20h-20zM740 460h20v20h-20zM760 460h20v20h-20zM780 460h20v20h-20zM800 460h20v20h-20zM860 460h20v20h-20zM140 480h20v20h-20zM200 480h20v20h-20zM220 480h20v20h-20zM420 480h20v20h-20zM440 480h20v20h-20zM460 480h20v20h-20zM480 480h20v20h-20zM500 480h20v20h-20zM520 480h20v20h-20zM540 480h20v20h-20zM740 480h20v20h-20zM760 480h20v20h-20zM820 480h20v20h-20zM80 500h20v20h-20zM100 500h20v20h-20zM120 500h20v20h-20zM140 500h20v20h-20zM220 500h20v20h-20zM420 500h20v20h-20zM460 500h20v20h-20zM480 500h20v20h-20zM500 500h20v20h-20zM540 500h20v20h-20zM740 500h20v20h-20zM760 500h20v20h-20zM820 500h20v20h-20zM880 500h20v20h-20zM100 520h20v20h-20zM140 520h20v20h-20zM160 520h20v20h-20zM200 520h20v20h-20zM220 520h20v20h-20zM420 520h20v20h-20zM440 520h20v20h-20zM460 520h20v20h-20zM480 520h20v20h-20zM500 520h20v20h-20zM520 520h20v20h-20zM540 520h20v20h-20zM740 520h20v20h-20zM760 520h20v20h-20zM820 520h20v20h-20zM860 520h20v20h-20zM880 520h20v20h-20zM120 540h20v20h-20zM160 540h20v20h-20zM220 540h20v20h-20zM400 540h20v20h-20zM420 540h20v20h-20zM440 540h20v20h-20zM460 540h20v20h-20zM480 540h20v20h-20zM500 540h20v20h-20zM520 540h20v20h-20zM540 540h20v20h-20zM560 540h20v20h-20zM740 540h20v20h-20zM840 540h20v20h-20zM860 540h20v20h-20zM140 560h20v20h-20zM200 560h20v20h-20zM220 560h20v20h-20zM360 560h20v20h-20zM380 560h20v20h-20zM480 560h20v20h-20zM580 560h20v20h-20zM600 560h20v20h-20zM740 560h20v20h-20zM760 560h20v20h-20zM780 560h20v20h-20zM820 560h20v20h-20zM80 580h20v20h-20zM120 580h20v20h-20zM140 580h20v20h-20zM220 580h20v20h-20zM320 580h20v20h-20zM340 580h20v20h-20zM480 580h20v20h-20zM620 580h20v20h-20zM640 580h20v20h-20zM760 580h20v20h-20zM820 580h20v20h-20zM200 600h20v20h-20zM220 600h20v20h-20zM280 600h20v20h-20zM300 600h20v20h-20zM320 600h20v20h-20zM480 600h20v20h-20zM640 600h20v20h-20zM660 600h20v20h-20zM680 600h20v20h-20zM740 600h20v20h-20zM760 600h20v20h-20zM780 600h20v20h-20zM820 600h20v20h-20zM80 620h20v20h-20zM100 620h20v20h-20zM220 620h20v20h-20zM240 620h20v20h-20zM260 620h20v20h-20zM280 620h20v20h-20zM320 620h20v20h-20zM480 620h20v20h-20zM640 620h20v20h-20zM680 620h20v20h-20zM700 620h20v20h-20zM720 620h20v20h-20zM740 620h20v20h-20zM760 620h20v20h-20zM800 620h20v20h-20zM820 620h20v20h-20zM80 640h20v20h-20zM140 640h20v20h-20zM200 640h20v20h-20zM220 640h20v20h-20zM240 640h20v20h-20zM340 640h20v20h-20zM360 640h20v20h-20zM480 640h20v20h-20zM600 640h20v20h-20zM620 640h20v20h-20zM720 640h20v20h-20zM740 640h20v20h-20zM760 640h20v20h-20zM820 640h20v20h-20zM860 640h20v20h-20zM100 660h20v20h-20zM120 660h20v20h-20zM140 660h20v20h-20zM220 660h20v20h-20zM240 660h20v20h-20zM260 660h20v20h-20zM380 660h20v20h-20zM400 660h20v20h-20zM480 660h20v20h-20zM560 660h20v20h-20zM580 660h20v20h-20zM700 660h20v20h-20zM720 660h20v20h-20zM740 660h20v20h-20zM760 660h20v20h-20zM860 660h20v20h-20zM880 660h20v20h-20zM80 680h20v20h-20zM140 680h20v20h-20zM160 680h20v20h-20zM180 680h20v20h-20zM200 680h20v20h-20zM220 680h20v20h-20zM240 680h20v20h-20zM260 680h20v20h-20zM280 680h20v20h-20zM300 680h20v20h-20zM420 680h20v20h-20zM440 680h20v20h-20zM480 680h20v20h-20zM520 680h20v20h-20zM540 680h20v20h-20zM660 680h20v20h-20zM680 680h20v20h-20zM700 680h20v20h-20zM720 680h20v20h-20zM740 680h20v20h-20zM760 680h20v20h-20zM860 680h20v20h-20zM880 680h20v20h-20zM100 700h20v20h-20zM120 700h20v20h-20zM140 700h20v20h-20zM160 700h20v20h-20zM180 700h20v20h-20zM260 700h20v20h-20zM280 700h20v20h-20zM300 700h20v20h-20zM320 700h20v20h-20zM340 700h20v20h-20zM460 700h20v20h-20zM480 700h20v20h-20zM500 700h20v20h-20zM620 700h20v20h-20zM640 700h20v20h-20zM660 700h20v20h-20zM700 700h20v20h-20zM860 700h20v20h-20zM80 720h20v20h-20zM120 720h20v20h-20zM140 720h20v20h-20zM160 720h20v20h-20zM180 720h20v20h-20zM200 720h20v20h-20zM300 720h20v20h-20zM320 720h20v20h-20zM340 720h20v20h-20zM360 720h20v20h-20zM480 720h20v20h-20zM600 720h20v20h-20zM620 720h20v20h-20zM640 720h20v20h-20zM720 720h20v20h-20zM740 720h20v20h-20zM760 720h20v20h-20zM780 720h20v20h-20zM800 720h20v20h-20zM820 720h20v20h-20zM840 720h20v20h-20zM860 720h20v20h-20zM240 740h20v20h-20zM280 740h20v20h-20zM340 740h20v20h-20zM360 740h20v20h-20zM380 740h20v20h-20zM400 740h20v20h-20zM480 740h20v20h-20zM560 740h20v20h-20zM580 740h20v20h-20zM600 740h20v20h-20zM640 740h20v20h-20zM700 740h20v20h-20zM720 740h20v20h-20zM800 740h20v20h-20zM820 740h20v20h-20zM840 740h20v20h-20zM80 760h20v20h-20zM100 760h20v20h-20zM120 760h20v20h-20zM140 760h20v20h-20zM160 760h20v20h-20zM180 760h20v20h-20zM200 760h20v20h-20zM240 760h20v20h-20zM260 760h20v20h-20zM320 760h20v20h-20zM380 760h20v20h-20zM400 760h20v20h-20zM420 760h20v20h-20zM440 760h20v20h-20zM480 760h20v20h-20zM520 760h20v20h-20zM540 760h20v20h-20zM560 760h20v20h-20zM580 760h20v20h-20zM640 760h20v20h-20zM700 760h20v20h-20zM720 760h20v20h-20zM760 760h20v20h-20zM800 760h20v20h-20zM860 760h20v20h-20zM880 760h20v20h-20zM80 780h20v20h-20zM200 780h20v20h-20zM240 780h20v20h-20zM260 780h20v20h-20zM300 780h20v20h-20zM320 780h20v20h-20zM400 780h20v20h-20zM420 780h20v20h-20zM440 780h20v20h-20zM460 780h20v20h-20zM480 780h20v20h-20zM500 780h20v20h-20zM520 780h20v20h-20zM540 780h20v20h-20zM560 780h20v20h-20zM660 780h20v20h-20zM680 780h20v20h-20zM720 780h20v20h-20zM800 780h20v20h-20zM820 780h20v20h-20zM860 780h20v20h-20zM880 780h20v20h-20zM80 800h20v20h-20zM120 800h20v20h-20zM140 800h20v20h-20zM160 800h20v20h-20zM200 800h20v20h-20zM240 800h20v20h-20zM280 800h20v20h-20zM320 800h20v20h-20zM340 800h20v20h-20zM440 800h20v20h-20zM460 800h20v20h-20zM480 800h20v20h-20zM500 800h20v20h-20zM520 800h20v20h-20zM620 800h20v20h-20zM660 800h20v20h-20zM720 800h20v20h-20zM740 800h20v20h-20zM760 800h20v20h-20zM780 800h20v20h-20zM800 800h20v20h-20zM80 820h20v20h-20zM120 820h20v20h-20zM140 820h20v20h-20zM160 820h20v20h-20zM200 820h20v20h-20zM260 820h20v20h-20zM320 820h20v20h-20zM340 820h20v20h-20zM360 820h20v20h-20zM380 820h20v20h-20zM480 820h20v20h-20zM680 820h20v20h-20zM700 820h20v20h-20zM720 820h20v20h-20zM740 820h20v20h-20zM780 820h20v20h-20zM800 820h20v20h-20zM80 840h20v20h-20zM120 840h20v20h-20zM140 840h20v20h-20zM160 840h20v20h-20zM200 840h20v20h-20zM240 840h20v20h-20zM260 840h20v20h-20zM280 840h20v20h-20zM300 840h20v20h-20zM340 840h20v20h-20zM380 840h20v20h-20zM400 840h20v20h-20zM420 840h20v20h-20zM500 840h20v20h-20zM540 840h20v20h-20zM560 840h20v20h-20zM580 840h20v20h-20zM600 840h20v20h-20zM620 840h20v20h-20zM680 840h20v20h-20zM700 840h20v20h-20zM800 840h20v20h-20zM840 840h20v20h-20zM880 840h20v20h-20zM80 860h20v20h-20zM200 860h20v20h-20zM240 860h20v20h-20zM280 860h20v20h-20zM300 860h20v20h-20zM320 860h20v20h-20zM360 860h20v20h-20zM380 860h20v20h-20zM400 860h20v20h-20zM440 860h20v20h-20zM460 860h20v20h-20zM520 860h20v20h-20zM540 860h20v20h-20zM560 860h20v20h-20zM580 860h20v20h-20zM600 860h20v20h-20zM620 860h20v20h-20zM640 860h20v20h-20zM660 860h20v20h-20zM680 860h20v20h-20zM700 860h20v20h-20zM720 860h20v20h-20zM760 860h20v20h-20zM800 860h20v20h-20zM840 860h20v20h-20zM860 860h20v20h-20zM80 880h20v20h-20zM100 880h20v20h-20zM120 880h20v20h-20zM140 880h20v20h-20zM160 880h20v20h-20zM180 880h20v20h-20zM200 880h20v20h-20zM240 880h20v20h-20zM280 880h20v20h-20zM300 880h20v20h-20zM320 880h20v20h-20zM420 880h20v20h-20zM440 880h20v20h-20zM460 880h20v20h-20zM480 880h20v20h-20zM500 880h20v20h-20zM520 880h20v20h-20zM540 880h20v20h-20zM640 880h20v20h-20zM660 880h20v20h-20zM700 880h20v20h-20zM720 880h20v20h-20zM780 880h20v20h-20zM820 880h20v20h-20zM840 880h20v20h-20zM860 880h20v20h-20zM880 880h20v20h-20z" fill="#000"/></svg>